<mxfile host="app.diagrams.net" agent="Mozilla/5.0 (Windows NT 10.0; Win64; x64) AppleWebKit/537.36 (KHTML, like Gecko) Chrome/139.0.0.0 Safari/537.36 Edg/139.0.0.0" version="28.1.2">
  <diagram name="Page-1" id="CZLCnK6TREHxsby2yksW">
    <mxGraphModel dx="10210" dy="8280" grid="1" gridSize="10" guides="1" tooltips="1" connect="1" arrows="1" fold="1" page="1" pageScale="1" pageWidth="850" pageHeight="1100" background="none" math="0" shadow="0">
      <root>
        <mxCell id="0" />
        <mxCell id="1" parent="0" />
        <mxCell id="UDl6l3yjUY0BkbkXLKus-11" value="" style="html=1;whiteSpace=wrap;shape=isoCube2;backgroundOutline=1;isoAngle=15;fillColor=none;strokeColor=light-dark(#000000,#999900);fontColor=light-dark(#000000,#FFFF00);strokeWidth=3;" parent="1" vertex="1">
          <mxGeometry x="-1490" y="-2520" width="4800" height="4800" as="geometry" />
        </mxCell>
        <mxCell id="UDl6l3yjUY0BkbkXLKus-10" value="" style="html=1;whiteSpace=wrap;shape=isoCube2;backgroundOutline=1;isoAngle=15;fillColor=none;strokeColor=light-dark(#000000,#80FF00);strokeWidth=3;" parent="1" vertex="1">
          <mxGeometry x="-290" y="-1370" width="2400" height="2400" as="geometry" />
        </mxCell>
        <mxCell id="UDl6l3yjUY0BkbkXLKus-9" value="" style="html=1;whiteSpace=wrap;shape=isoCube2;backgroundOutline=1;isoAngle=15;fillColor=none;strokeColor=light-dark(#000000,#00FFFF);strokeWidth=3;" parent="1" vertex="1">
          <mxGeometry x="510" y="-600" width="800" height="800" as="geometry" />
        </mxCell>
        <mxCell id="UDl6l3yjUY0BkbkXLKus-14" value="" style="endArrow=none;dashed=1;html=1;dashPattern=1 3;strokeWidth=2;rounded=0;" parent="1" source="UDl6l3yjUY0BkbkXLKus-9" target="UDl6l3yjUY0BkbkXLKus-10" edge="1">
          <mxGeometry width="50" height="50" relative="1" as="geometry">
            <mxPoint x="1500" y="-200" as="sourcePoint" />
            <mxPoint x="1550" y="-250" as="targetPoint" />
          </mxGeometry>
        </mxCell>
        <mxCell id="qX9qabngvb6qFZ-4m96P-1" value="" style="endArrow=none;html=1;strokeWidth=3;rounded=0;exitX=0;exitY=0;exitDx=800;exitDy=192.0630072640928;exitPerimeter=0;" edge="1" parent="1" source="UDl6l3yjUY0BkbkXLKus-9">
          <mxGeometry width="50" height="50" relative="1" as="geometry">
            <mxPoint x="4130" y="-1410" as="sourcePoint" />
            <mxPoint x="4200" y="-1790" as="targetPoint" />
          </mxGeometry>
        </mxCell>
        <mxCell id="qX9qabngvb6qFZ-4m96P-2" value="" style="endArrow=none;html=1;strokeWidth=3;rounded=0;exitX=0;exitY=0;exitDx=0;exitDy=192.0630072640928;exitPerimeter=0;" edge="1" parent="1" source="UDl6l3yjUY0BkbkXLKus-9">
          <mxGeometry width="50" height="50" relative="1" as="geometry">
            <mxPoint x="-1500" y="-1370" as="sourcePoint" />
            <mxPoint x="-2390" y="-1792" as="targetPoint" />
          </mxGeometry>
        </mxCell>
        <mxCell id="qX9qabngvb6qFZ-4m96P-3" value="" style="endArrow=none;html=1;strokeWidth=3;rounded=0;entryX=0.5;entryY=1;entryDx=0;entryDy=0;entryPerimeter=0;" edge="1" parent="1" target="UDl6l3yjUY0BkbkXLKus-9">
          <mxGeometry width="50" height="50" relative="1" as="geometry">
            <mxPoint x="910" y="3300" as="sourcePoint" />
            <mxPoint x="1470" y="3090" as="targetPoint" />
          </mxGeometry>
        </mxCell>
      </root>
    </mxGraphModel>
  </diagram>
</mxfile>
